<svg t="1631239096996" class="icon" viewBox="0 0 1024 1024" version="1.1" xmlns="http://www.w3.org/2000/svg" p-id="21416" width="200" height="200"><path d="M0 113.493333C0 50.773333 50.773333 0 113.493333 0h797.013334C973.226667 0 1024 50.773333 1024 113.493333v797.013334A113.493333 113.493333 0 0 1 910.506667 1024H113.493333A113.493333 113.493333 0 0 1 0 910.506667V113.493333z m113.749333 0.256v796.501334h796.501334V113.749333H113.749333z m169.130667 749.824a567.893333 567.893333 0 0 1-99.669333-55.637333 397.909333 397.909333 0 0 1 334.592-182.186667c136.533333 0 256.938667 68.693333 328.704 173.397334-30.72 22.613333-63.488 42.154667-98.133334 58.282666a284.074667 284.074667 0 0 0-230.570666-117.845333 284.16 284.16 0 0 0-234.922667 123.989333zM512 568.917333A199.082667 199.082667 0 1 1 512 170.666667a199.082667 199.082667 0 0 1 0 398.250666z m0-113.834666a85.333333 85.333333 0 1 0 0-170.666667 85.333333 85.333333 0 0 0 0 170.666667z" p-id="21417"></path></svg>