<svg t="1631238294005" class="icon" viewBox="0 0 1024 1024" version="1.1" xmlns="http://www.w3.org/2000/svg" p-id="17561" width="200" height="200"><path d="M213.312 533.312c0 13.376 19.712 36.608 65.28 59.456C337.664 622.272 421.44 640 512 640c90.56 0 174.336-17.728 233.408-47.232 45.568-22.848 65.28-46.08 65.28-59.456V440.704C740.288 484.224 632.64 512 512 512c-120.64 0-228.288-27.84-298.688-71.296v92.608z m597.376 120.704c-70.4 43.52-178.048 71.296-298.688 71.296-120.64 0-228.288-27.776-298.688-71.296v92.672c0 13.312 19.712 36.608 65.28 59.392 59.072 29.568 142.848 47.232 233.408 47.232 90.56 0 174.336-17.664 233.408-47.232 45.568-22.784 65.28-46.08 65.28-59.392v-92.672zM128 746.688V320c0-106.048 171.968-192 384-192s384 85.952 384 192v426.688c0 105.984-171.968 192-384 192s-384-86.016-384-192z m384-320c90.56 0 174.336-17.728 233.408-47.232 45.568-22.848 65.28-46.08 65.28-59.456 0-13.376-19.712-36.608-65.28-59.456-59.072-29.504-142.848-47.232-233.408-47.232-90.56 0-174.336 17.728-233.408 47.232-45.568 22.848-65.28 46.08-65.28 59.456 0 13.376 19.712 36.608 65.28 59.456 59.072 29.504 142.848 47.232 233.408 47.232z" p-id="17562"></path></svg>