<svg t="1631238421721" class="icon" viewBox="0 0 1024 1024" version="1.1" xmlns="http://www.w3.org/2000/svg" p-id="18466" width="200" height="200"><path d="M0 0h1024v1024H0z" fill="#FFFAFA" fill-opacity="0" p-id="18467"></path><path d="M512 64a448 448 0 0 0-448 448 448 448 0 0 0 448 448 448 448 0 0 0 448-448 448 448 0 0 0-448-448z m227.776 311.872l-314.56 315.584-0.384 0.384a31.424 31.424 0 0 1-50.432-5.952L279.232 519.232a31.36 31.36 0 0 1 11.712-42.88 31.36 31.36 0 0 1 42.944 11.648L408.576 618.88l286.592-287.36a31.488 31.488 0 0 1 44.608 44.416z" p-id="18468"></path></svg>