<svg t="1631182889275" class="icon" viewBox="0 0 1024 1024" version="1.1" xmlns="http://www.w3.org/2000/svg" p-id="5563" width="200" height="200"><path d="M512 64a448 448 0 1 1 0 896A448 448 0 0 1 512 64z m0 76.032a372.032 372.032 0 0 0 0 743.936A372.032 372.032 0 0 0 512 140.032z m165.376 205.76c4.48 0 8 3.584 8 8 0 1.92-0.576 3.84-1.792 5.184L553.472 513.984l129.92 154.88a8.32 8.32 0 0 1 1.92 5.248c0 4.48-3.584 8-8 8l-65.984-0.32L512 563.392l-99.328 118.528-66.048 0.256a8 8 0 0 1-6.144-13.184l130.112-154.88L340.48 359.04a8.32 8.32 0 0 1-1.92-5.184c0-4.48 3.648-8 8.064-8l66.048 0.256L512 464.64l99.392-118.464z" p-id="5564"></path></svg>