<svg t="1631183089497" class="icon" viewBox="0 0 1024 1024" version="1.1" xmlns="http://www.w3.org/2000/svg" p-id="10633" width="200" height="200"><path d="M505.728 660.992c3.2 4.096 9.344 4.096 12.544 0l112-141.696a8 8 0 0 0-6.272-12.928H549.888V168a8 8 0 0 0-8-8H481.92a8 8 0 0 0-8 8v338.304H400a8 8 0 0 0-6.272 12.928l112 141.76z m372.288-35.008h-60.032a8 8 0 0 0-8 8v153.984H214.016V633.984a8 8 0 0 0-8-8H145.92a8 8 0 0 0-8 8V832a32 32 0 0 0 32 32h684.032a32 32 0 0 0 32-32V633.984a8 8 0 0 0-8-8z" p-id="10634"></path></svg>