<svg t="1631237897286" class="icon" viewBox="0 0 1024 1024" version="1.1" xmlns="http://www.w3.org/2000/svg" p-id="15887" width="200" height="200"><path d="M858.24 101.632c34.24 0 61.952 27.712 61.952 62.016v570.496a62.016 62.016 0 0 1-62.016 62.08l-62.08-0.064v-74.432h49.728V176H300.032v49.6H225.664v-61.952a62.08 62.08 0 0 1 54.784-61.632l7.232-0.384z" fill="#010621" fill-opacity=".75" p-id="15888"></path><path d="M734.144 225.664H163.648a62.016 62.016 0 0 0-62.08 62.016v570.496c0 34.304 27.776 62.08 62.08 62.08h570.496a62.016 62.016 0 0 0 62.08-62.08V287.68a62.016 62.016 0 0 0-62.08-62.08z m-12.352 74.368v545.792H176V300.032h545.792z" fill="#010621" fill-opacity=".75" p-id="15889"></path><path d="M355.84 386.88a93.056 93.056 0 0 0 185.6 8.96l0.448-8.96h62.08a155.008 155.008 0 0 1-309.76 10.24l-0.384-10.24h62.08z" p-id="15890"></path></svg>