<svg t="1631240110402" class="icon" viewBox="0 0 1024 1024" version="1.1" xmlns="http://www.w3.org/2000/svg" p-id="27432" width="200" height="200"><path d="M362.154667 436.992a600.490667 600.490667 0 0 0 224.853333 224.853333l50.261333-70.4a56.917333 56.917333 0 0 1 73.642667-16.896 649.813333 649.813333 0 0 0 260.693333 77.653334 56.917333 56.917333 0 0 1 52.394667 56.661333v253.866667a56.917333 56.917333 0 0 1-51.114667 56.576c-30.122667 3.157333-60.501333 4.693333-91.136 4.693333C394.837333 1024 0 629.162667 0 142.250667 0 111.616 1.536 81.237333 4.693333 51.114667A56.917333 56.917333 0 0 1 61.269333 0h253.866667c29.610667 0 54.357333 22.784 56.661333 52.394667a649.813333 649.813333 0 0 0 77.653334 260.693333 56.917333 56.917333 0 0 1-16.896 73.642667l-70.4 50.346666z m-143.445334-37.376l108.032-77.141333a762.88 762.88 0 0 1-62.378666-208.725334H114.346667a767.914667 767.914667 0 0 0 795.904 795.904V759.637333a762.88 762.88 0 0 1-208.725334-62.378666l-77.141333 108.032a707.84 707.84 0 0 1-90.368-42.666667l-3.328-1.877333a714.24 714.24 0 0 1-267.434667-267.434667l-1.877333-3.328a707.84 707.84 0 0 1-42.666667-90.368z" p-id="27433"></path></svg>