<svg t="1631239032878" class="icon" viewBox="0 0 1024 1024" version="1.1" xmlns="http://www.w3.org/2000/svg" p-id="21032" width="200" height="200"><path d="M512 64a448 448 0 1 0 0 896A448 448 0 0 0 512 64z m0 708.032a40 40 0 1 1 0-80 40 40 0 0 1 0 80z m62.912-219.52a48.32 48.32 0 0 0-30.912 44.8v22.656a8 8 0 0 1-8 8.064h-48a8 8 0 0 1-8-8.064v-21.44a111.744 111.744 0 0 1 72-105.792c33.984-13.12 56-41.6 56-72.704 0-44.16-43.072-80-96-80s-96 35.84-96 80v7.552a8 8 0 0 1-8 8h-48a8 8 0 0 1-8-8v-7.616c0-39.296 17.216-75.968 48.384-103.296A168.576 168.576 0 0 1 512 275.968c41.984 0 81.6 14.528 111.616 40.704 31.168 27.328 48.384 64 48.384 103.296 0 57.856-38.08 109.824-97.088 132.48z" p-id="21033"></path></svg>