<svg t="1631240058493" class="icon" viewBox="0 0 1024 1024" version="1.1" xmlns="http://www.w3.org/2000/svg" p-id="27048" width="200" height="200"><path d="M113.800533 659.933867v-546.133334H22.7328V22.7328h136.533333C184.456533 22.7328 204.8 43.144533 204.8 68.266667v546.133333h566.0672l90.999467-364.066133H295.799467V159.266133h624.4352a45.533867 45.533867 0 0 1 44.168533 56.593067L850.602667 670.993067a45.533867 45.533867 0 0 1-44.168534 34.4064h-647.168a45.533867 45.533867 0 0 1-45.4656-45.4656zM204.8 978.466133a90.999467 90.999467 0 1 1 0-181.998933 90.999467 90.999467 0 0 1 0 181.998933z m546.133333 0a90.999467 90.999467 0 1 1 0-181.998933 90.999467 90.999467 0 0 1 0 181.998933z" p-id="27049"></path></svg>