<svg t="1631238995475" class="icon" viewBox="0 0 1024 1024" version="1.1" xmlns="http://www.w3.org/2000/svg" p-id="20904" width="200" height="200"><path d="M786.432 673.216a40.64 40.64 0 0 1-40.64-40.64V510.784a40.576 40.576 0 1 1 81.28 0v121.792c0 22.4-18.176 40.64-40.64 40.64M217.856 470.144c22.4 0 40.576 18.176 40.576 40.64v121.792a40.64 40.64 0 0 1-81.216 0V510.72c0-22.4 18.176-40.576 40.64-40.576M502.144 64A406.144 406.144 0 0 0 96 470.144v162.432a121.856 121.856 0 0 0 243.648 0V510.784a121.856 121.856 0 0 0-121.792-121.856c-10.88 0-21.12 1.856-31.168 4.48a324.736 324.736 0 0 1 315.52-248.192c152.96 0 280.896 105.856 315.392 248.32a121.408 121.408 0 0 0-31.104-4.608 121.856 121.856 0 0 0-121.92 121.856v121.792c0 49.6 30.08 94.272 75.968 112.96-15.616 52.096-64 90.112-121.216 90.112H542.72v-40.576H461.504v121.856h157.824a207.808 207.808 0 0 0 203.904-168.192 121.856 121.856 0 0 0 84.992-115.968V470.144A406.144 406.144 0 0 0 502.208 64" p-id="20905"></path></svg>