<svg t="1631182835622" class="icon" viewBox="0 0 1024 1024" version="1.1" xmlns="http://www.w3.org/2000/svg" p-id="5435" width="200" height="200"><path d="M563.84 512l262.4-312.96a7.936 7.936 0 0 0-6.016-13.056h-79.808a16.32 16.32 0 0 0-12.288 5.76L511.616 449.728 295.04 191.68a16 16 0 0 0-12.288-5.696H203.008a7.936 7.936 0 0 0-6.08 13.12L459.392 512l-262.464 312.96a7.936 7.936 0 0 0 6.08 13.056h79.808a16.32 16.32 0 0 0 12.288-5.76l216.512-258.048 216.512 258.112a16 16 0 0 0 12.288 5.696h79.808a7.936 7.936 0 0 0 6.08-13.12L563.776 512z" p-id="5436"></path></svg>