<svg t="1631239450352" class="icon" viewBox="0 0 1024 1024" version="1.1" xmlns="http://www.w3.org/2000/svg" p-id="23208" width="200" height="200"><path d="M755.785143 219.428571h243.858286v97.499429h-97.572572V950.857143a48.786286 48.786286 0 0 1-48.713143 48.786286H170.642286A48.786286 48.786286 0 0 1 121.929143 950.857143V316.928H24.356571V219.428571h243.858286V73.142857c0-26.916571 21.796571-48.786286 48.713143-48.786286h390.144c26.916571 0 48.713143 21.869714 48.713143 48.786286v146.285714zM804.571429 316.928H219.428571v585.142857h585.142858v-585.142857z m-438.857143 146.285714h97.499428v292.571429H365.714286v-292.571429z m195.072 0H658.285714v292.571429H560.786286v-292.571429zM365.714286 121.929143V219.428571h292.571428V121.929143H365.714286z" p-id="23209"></path></svg>