<svg t="1631183331604" class="icon" viewBox="0 0 1024 1024" version="1.1" xmlns="http://www.w3.org/2000/svg" p-id="11530" width="200" height="200"><path d="M272.896 512l265.408-339.072a8 8 0 0 0-6.272-12.928H454.656a16.192 16.192 0 0 0-12.608 6.08l-255.36 326.208a32 32 0 0 0 0 39.488l255.36 326.144c3.008 3.84 7.68 6.08 12.608 6.08h77.248c6.72 0 10.432-7.68 6.336-12.928L272.896 512z m304 0l265.408-339.072a8 8 0 0 0-6.272-12.928h-77.312a16.192 16.192 0 0 0-12.608 6.08l-255.36 326.208a32 32 0 0 0 0 39.488l255.36 326.144c3.008 3.84 7.68 6.08 12.608 6.08h77.248c6.72 0 10.432-7.68 6.336-12.928L576.896 512z" p-id="11531"></path></svg>