<svg t="1631239581581" class="icon" viewBox="0 0 1024 1024" version="1.1" xmlns="http://www.w3.org/2000/svg" p-id="23976" width="200" height="200"><path d="M233.658027 694.613333a170.666667 170.666667 0 1 1-119.808-2.304V331.690667a170.666667 170.666667 0 1 1 113.834666 0V512a283.050667 283.050667 0 0 1 170.666667-56.917333h227.498667a170.666667 170.666667 0 0 0 164.693333-125.696 170.666667 170.666667 0 1 1 115.626667 3.669333 284.501333 284.501333 0 0 1-280.32 235.861333H398.35136a170.666667 170.666667 0 0 0-164.693333 125.696zM170.76736 796.416a56.917333 56.917333 0 1 0 0 113.834667 56.917333 56.917333 0 0 0 0-113.834667z m0-682.666667a56.917333 56.917333 0 1 0 0 113.834667 56.917333 56.917333 0 0 0 0-113.834667z m682.666667 0a56.917333 56.917333 0 1 0 0 113.834667 56.917333 56.917333 0 0 0 0-113.834667z" p-id="23977"></path></svg>