<svg t="1631239827555" class="icon" viewBox="0 0 1024 1024" version="1.1" xmlns="http://www.w3.org/2000/svg" p-id="25512" width="200" height="200"><path d="M22.7328 1001.2672a364.066133 364.066133 0 1 1 728.200533 0H659.933867a273.066667 273.066667 0 0 0-546.133334 0H22.7328z m364.1344-409.6c-150.869333 0-273.066667-122.197333-273.066667-273.066667s122.197333-273.066667 273.066667-273.066666 273.066667 122.197333 273.066667 273.066666-122.197333 273.066667-273.066667 273.066667z m0-91.067733a181.998933 181.998933 0 1 0 0-364.066134 181.998933 181.998933 0 1 0 0 364.066134z m376.968533 168.5504a364.202667 364.202667 0 0 1 214.6304 332.117333H887.466667a273.066667 273.066667 0 0 0-160.9728-249.105067l37.341866-83.012266z m-31.266133-513.8432A250.333867 250.333867 0 0 1 887.466667 386.8672a250.2656 250.2656 0 0 1-227.5328 249.309867V544.5632a159.266133 159.266133 0 0 0 47.377066-300.782933l25.258667-88.4736z" p-id="25513"></path></svg>