<svg t="1631237608937" class="icon" viewBox="0 0 1024 1024" version="1.1" xmlns="http://www.w3.org/2000/svg" p-id="14478" width="200" height="200"><path d="M534.656 57.6a64 64 0 0 1 5.76 0.256 37.76 37.76 0 0 1 31.936 11.072l6.528 6.528 1.024 0.896 271.744 271.744 0.896 0.896 6.528 6.656a37.568 37.568 0 0 1 11.008 31.872l0.32 5.824V902.4a64 64 0 0 1-64 64H217.6a64 64 0 0 1-64-64V121.6a64 64 0 0 1 64-64z m-27.904 76.8H230.4v755.2h563.2l-0.064-468.416h-248.32a38.4 38.4 0 0 1-37.952-32.128l-0.512-6.208V134.4z m60.096 527.872a7.68 7.68 0 0 1 7.68 7.68v61.44a7.68 7.68 0 0 1-7.68 7.68h-240.64a7.68 7.68 0 0 1-7.68-7.68v-61.44a7.68 7.68 0 0 1 7.68-7.68h240.64z m128-128a7.68 7.68 0 0 1 7.68 7.68v61.44a7.68 7.68 0 0 1-7.68 7.68h-368.64a7.68 7.68 0 0 1-7.68-7.68v-61.44a7.68 7.68 0 0 1 7.68-7.68h368.64zM583.616 188.864v155.648h155.648L583.68 188.8z" p-id="14479"></path></svg>