<svg t="1631240043305" class="icon" viewBox="0 0 1024 1024" version="1.1" xmlns="http://www.w3.org/2000/svg" p-id="26920" width="200" height="200"><path d="M682.666667 0c31.402667 0 56.917333 25.514667 56.917333 56.917333v227.498667A56.917333 56.917333 0 0 1 682.666667 341.333333H568.917333v113.749334h227.498667c31.402667 0 56.917333 25.514667 56.917333 56.917333v170.666667h113.749334c31.402667 0 56.917333 25.514667 56.917333 56.917333v227.498667a56.917333 56.917333 0 0 1-56.917333 56.917333h-341.333334a56.917333 56.917333 0 0 1-56.832-56.917333V739.584c0-31.402667 25.429333-56.917333 56.832-56.917333h113.834667V568.917333H284.416V682.666667h113.834667c31.402667 0 56.832 25.514667 56.832 56.917333v227.498667a56.917333 56.917333 0 0 1-56.832 56.917333h-341.333334A56.917333 56.917333 0 0 1 0 967.082667V739.584C0 708.181333 25.514667 682.666667 56.917333 682.666667H170.666667V512c0-31.402667 25.514667-56.917333 56.917333-56.917333h227.498667V341.333333H341.333333a56.917333 56.917333 0 0 1-56.917333-56.917333V56.917333C284.416 25.514667 309.930667 0 341.333333 0h341.333334zM341.333333 796.416H113.749333v113.834667H341.333333V796.416z m568.917334 0H682.666667v113.834667h227.584V796.416z m-284.501334-682.666667H398.250667v113.834667h227.498666V113.749333z" p-id="26921"></path></svg>