<svg t="1631237084485" class="icon" viewBox="0 0 1024 1024" version="1.1" xmlns="http://www.w3.org/2000/svg" p-id="13067" width="200" height="200"><path d="M142.528 725.312a427.456 427.456 0 0 1-41.728-99.2 128 128 0 0 0 0.064-228.16 426.24 426.24 0 0 1 106.688-185.024 128 128 0 0 0 197.632-114.112 426.24 426.24 0 0 1 213.632 0.064 128 128 0 0 0 197.632 114.048c24.704 25.152 46.592 53.76 65.024 85.76 18.496 31.936 32.32 65.28 41.728 99.2a128 128 0 0 0-0.064 228.16 426.24 426.24 0 0 1-106.688 185.024 128 128 0 0 0-197.632 114.112 426.24 426.24 0 0 1-213.632-0.064 128 128 0 0 0-197.632-114.048 427.456 427.456 0 0 1-65.024-85.76zM384 733.696a213.056 213.056 0 0 1 96 118.208c21.312 1.984 42.688 2.048 64 0 16.32-49.92 50.56-91.968 96-118.144a213.056 213.056 0 0 1 150.4-24.128c12.352-17.408 23.04-35.968 31.936-55.36A213.056 213.056 0 0 1 768 512c0-53.76 20.032-104 54.336-142.272a346.688 346.688 0 0 0-32-55.36A213.056 213.056 0 0 1 544 172.096a340.736 340.736 0 0 0-64 0A213.056 213.056 0 0 1 384 290.24c-45.44 26.304-99.008 34.88-150.4 24.128-12.352 17.408-23.04 35.968-31.936 55.36 35.008 39.104 54.4 89.792 54.336 142.272 0 53.76-20.032 104-54.336 142.272 8.96 19.392 19.648 37.952 32 55.36A213.056 213.056 0 0 1 384 733.696zM512 640a128 128 0 1 1 0-256 128 128 0 0 1 0 256z m0-85.312a42.688 42.688 0 1 0 0-85.376 42.688 42.688 0 0 0 0 85.376z" p-id="13068"></path></svg>