<svg t="1631238827603" class="icon" viewBox="0 0 1024 1024" version="1.1" xmlns="http://www.w3.org/2000/svg" p-id="20134" width="200" height="200"><path d="M491.712 128.256c-9.6-0.896-24.96 0.192-34.304 9.472 0 0-227.648 213.504-237.312 223.04H143.616C100.736 360.768 64 395.456 64 438.336v155.072c0 42.88 36.8 77.568 79.616 77.568H220.16c9.664 9.6 237.312 222.976 237.312 222.976 10.048 10.112 24.64 10.432 34.304 9.536 19.648-1.92 37.568-20.544 37.568-35.648 0.192-1.728 0.256-702.208 0-703.872 0-14.72-17.984-33.856-37.632-35.712z m193.92 184.576A45.312 45.312 0 1 0 621.44 376.96a196.672 196.672 0 0 1 0 277.76 45.312 45.312 0 0 0 64.064 64.192 287.488 287.488 0 0 0 0-406.08z m154.88-85.44a45.312 45.312 0 1 0-64.064 64.064 317.76 317.76 0 0 1 0 448.832 45.312 45.312 0 0 0 64.064 64.064A405.376 405.376 0 0 0 960 515.84a405.376 405.376 0 0 0-119.488-288.448z" p-id="20135"></path></svg>