<svg t="1631238096664" class="icon" viewBox="0 0 1024 1024" version="1.1" xmlns="http://www.w3.org/2000/svg" p-id="16663" width="200" height="200"><path d="M0 0h1024v1024H0z" fill="#FFFFFF" fill-opacity="0" p-id="16664"></path><path d="M559.552 100.544A32 32 0 0 1 608 128v768a32 32 0 0 1-48.448 27.456L247.168 736H128a32 32 0 0 1-31.488-26.24L96 704V320a32 32 0 0 1 32-32h119.04zM544 184.448L272.448 347.456A32 32 0 0 1 256 352H160v320H256a32 32 0 0 1 11.264 2.048l5.184 2.56L544 839.424V184.448z m313.984 52.992c60.032 84.288 91.84 177.28 91.84 273.536 0 97.088-32.32 190.912-93.312 275.712a32 32 0 0 1-51.968-37.376c53.44-74.24 81.28-155.136 81.28-238.336 0-82.496-27.392-162.624-79.936-236.416a32 32 0 0 1 52.096-37.12z m-117.056 128.768c31.936 44.736 48.896 94.464 48.896 146.048 0 52.032-17.28 102.144-49.664 147.2a32 32 0 1 1-51.968-37.376c24.832-34.56 37.632-71.68 37.632-109.824 0-37.76-12.608-74.688-36.992-108.928a32 32 0 0 1 52.096-37.12z" p-id="16665"></path></svg>