<svg t="1631237442814" class="icon" viewBox="0 0 1024 1024" version="1.1" xmlns="http://www.w3.org/2000/svg" p-id="14094" width="200" height="200"><path d="M697.856 345.6a7.68 7.68 0 0 1 7.616 6.4l71.872 416.704a7.68 7.68 0 0 1-3.456 7.808l-257.792 162.304a7.68 7.68 0 0 1-8.192 0l-257.792-162.304a7.68 7.68 0 0 1-3.456-7.808L318.528 352a7.68 7.68 0 0 1 7.616-6.4z m-58.24 76.8H384.32l-54.144 313.728L512 850.624l181.76-114.496L639.616 422.4z m63.104-332.8a7.68 7.68 0 0 1 7.68 7.68v189.44a7.68 7.68 0 0 1-7.68 7.68H321.28a7.68 7.68 0 0 1-7.68-7.68V97.28a7.68 7.68 0 0 1 7.68-7.68zM633.6 166.4H390.4v51.2h243.2v-51.2z" p-id="14095"></path></svg>