<svg t="1631183515920" class="icon" viewBox="0 0 1024 1024" version="1.1" xmlns="http://www.w3.org/2000/svg" p-id="12427" width="200" height="200"><path d="M762.944 823.36A469.504 469.504 0 0 1 50.368 512a468.544 468.544 0 0 1 142.528-258.816L59.392 119.808l60.352-60.352 844.8 844.8-60.416 60.288-141.184-141.184zM253.248 313.6A382.528 382.528 0 0 0 137.536 512a384.192 384.192 0 0 0 563.2 249.088L614.208 674.56A192 192 0 0 1 349.44 409.792L253.248 313.6z m297.728 297.728L412.672 473.024a106.688 106.688 0 0 0 138.24 138.24l0.064 0.064z m336.768 96.64l-61.056-61.056A381.248 381.248 0 0 0 886.464 512a384.192 384.192 0 0 0-478.912-284.224L340.224 160.448A469.504 469.504 0 0 1 973.632 512a467.072 467.072 0 0 1-85.888 195.904zM500.16 320.256a192 192 0 0 1 203.52 203.52l-203.52-203.52z" p-id="12428"></path></svg>