<svg t="1631239378998" class="icon" viewBox="0 0 1024 1024" version="1.1" xmlns="http://www.w3.org/2000/svg" p-id="22824" width="200" height="200"><path d="M268.214857 219.428571V73.142857c0-26.916571 21.796571-48.786286 48.713143-48.786286h585.142857c26.989714 0 48.786286 21.869714 48.786286 48.786286v682.642286a48.786286 48.786286 0 0 1-48.786286 48.786286h-146.285714v146.285714c0 26.916571-21.942857 48.786286-49.078857 48.786286H122.294857A48.786286 48.786286 0 0 1 73.142857 950.857143l0.146286-682.642286c0-26.916571 21.942857-48.786286 49.005714-48.786286h145.92zM170.788571 316.928l-0.146285 585.142857H658.285714v-585.142857H170.788571zM365.714286 219.428571h390.070857v487.643429h97.572571v-585.142857H365.714286V219.428571zM268.214857 463.213714h292.571429v97.572572h-292.571429V463.213714z m0 195.072h292.571429v97.499429h-292.571429V658.285714z" p-id="22825"></path></svg>