<svg t="1631239639793" class="icon" viewBox="0 0 1024 1024" version="1.1" xmlns="http://www.w3.org/2000/svg" p-id="24360" width="200" height="200"><path d="M238.933333 364.066133v-45.4656a273.066667 273.066667 0 1 1 546.133334 0v45.4656h90.999466c25.1904 0 45.533867 20.411733 45.533867 45.533867v546.133333a45.533867 45.533867 0 0 1-45.533867 45.533867H147.933867A45.533867 45.533867 0 0 1 102.4 955.733333V409.6c0-25.122133 20.343467-45.533867 45.533867-45.533867H238.933333z m591.6672 91.067734H193.399467v455.0656h637.201066V455.133867z m-364.1344 260.846933a90.999467 90.999467 0 1 1 91.067734 0V819.2H466.466133v-103.2192z m-136.533333-351.914667h364.1344v-45.4656a182.0672 182.0672 0 0 0-364.1344 0v45.4656z" p-id="24361"></path></svg>