<svg t="1631237809474" class="icon" viewBox="0 0 1024 1024" version="1.1" xmlns="http://www.w3.org/2000/svg" p-id="15375" width="200" height="200"><path d="M832 464h-68.032v-224a128 128 0 0 0-128-128H388.032a128 128 0 0 0-128 128v224H192a32 32 0 0 0-32 32v384a32 32 0 0 0 32 32h640a32 32 0 0 0 32-32v-384a32 32 0 0 0-32-32z m-500.032-224c0-30.912 25.152-56 56-56h248c30.912 0 56.064 25.088 56.064 56v224H331.904v-224z m460.032 600h-560v-304h560v304z m-308.032-139.008v52.992c0 4.416 3.648 8 8 8h40a8 8 0 0 0 8.064-8v-52.992A47.936 47.936 0 0 0 512 613.952a48 48 0 0 0-28.032 87.04z" p-id="15376"></path></svg>