<svg t="1631238785447" class="icon" viewBox="0 0 1024 1024" version="1.1" xmlns="http://www.w3.org/2000/svg" p-id="19877" width="200" height="200"><path d="M563.2 460.8h358.4a25.6 25.6 0 0 0 25.6-25.6V76.8a25.6 25.6 0 0 0-25.6-25.6H563.2a25.6 25.6 0 0 0-25.6 25.6v358.4a25.6 25.6 0 0 0 25.6 25.6z m76.8-102.4h204.8V153.6h-204.8v204.8zM128 460.8h358.4a25.6 25.6 0 0 0 25.6-25.6V76.8a25.6 25.6 0 0 0-25.6-25.6H128a25.6 25.6 0 0 0-25.6 25.6v358.4a25.6 25.6 0 0 0 25.6 25.6z m76.8-102.4h204.8V153.6H204.8v204.8z m486.4-51.2h102.4V204.8h-102.4v102.4z m-435.2 0h102.4V204.8h-102.4v102.4z m588.8 281.6h102.4v-102.4h-102.4v102.4z m-307.2 0h102.4v-102.4h-102.4v102.4zM102.4 896h409.6V486.4H102.4v409.6z m102.4-102.4h204.8v-204.8H204.8v204.8z m435.2-204.8v204.8h-102.4v102.4h102.4v-102.4h102.4v-204.8h-102.4z m-384 153.6h102.4v-102.4h-102.4v102.4z m588.8256-51.2v102.4H742.4v102.4h179.2a25.6 25.6 0 0 0 25.6-25.6v-179.2h-102.3744z" p-id="19878"></path><path d="M1024 1024H0V0" fill="#FFFFFF" p-id="19879"></path></svg>