<svg t="1631183539898" class="icon" viewBox="0 0 1024 1024" version="1.1" xmlns="http://www.w3.org/2000/svg" p-id="12555" width="200" height="200"><path d="M512 64a448 448 0 1 1 0 896A448 448 0 0 1 512 64z m0 76.032a372.032 372.032 0 0 0 0 743.936A372.032 372.032 0 0 0 512 140.032z m24.128 139.968c4.352 0 8 3.584 8 8v247.488l142.592 103.104c3.584 2.56 4.352 7.488 1.792 11.2l-28.608 39.04a8.064 8.064 0 0 1-11.2 1.664L483.328 569.92a7.936 7.936 0 0 1-3.328-6.528V288c0-4.416 3.584-8 8-8z" p-id="12556"></path></svg>