<svg t="1631239195543" class="icon" viewBox="0 0 1024 1024" version="1.1" xmlns="http://www.w3.org/2000/svg" p-id="22056" width="200" height="200"><path d="M512 999.643429A487.643429 487.643429 0 1 1 512 24.429714a487.643429 487.643429 0 0 1 0 975.213715zM268.8 817.005714A388.388571 388.388571 0 0 0 512 902.070857a388.608 388.608 0 0 0 251.977143-92.233143 340.333714 340.333714 0 0 0-244.150857-102.765714 340.406857 340.406857 0 0 0-251.026286 110.006857z m-68.096-70.070857a437.613714 437.613714 0 0 1 319.122286-137.508571 437.467429 437.467429 0 0 1 310.198857 128.438857 390.070857 390.070857 0 1 0-629.321143 9.142857zM512 560.786286a195.072 195.072 0 1 1 0-390.144 195.072 195.072 0 0 1 0 390.144z m0-97.572572a97.499429 97.499429 0 1 0 0-194.998857 97.499429 97.499429 0 0 0 0 194.998857z" p-id="22057"></path></svg>