<svg t="1631238270232" class="icon" viewBox="0 0 1024 1024" version="1.1" xmlns="http://www.w3.org/2000/svg" p-id="17433" width="200" height="200"><path d="M725.312 128H896c23.552 0 42.688 19.072 42.688 42.688v682.624A42.688 42.688 0 0 1 896 896H128a42.688 42.688 0 0 1-42.688-42.688V170.688C85.312 147.072 104.448 128 128 128h170.688V42.688H384V128h256V42.688h85.312V128z m128 341.312H170.688v341.376h682.624V469.312z m-213.312-256H384v85.376H298.688V213.312h-128V384h682.624V213.312h-128v85.376H640V213.312zM256 554.688h85.312V640H256V554.688z m213.312 0h85.376V640H469.312V554.688z m213.376 0H768V640h-85.312V554.688z" p-id="17434"></path></svg>