<svg t="1631237757468" class="icon" viewBox="0 0 1024 1024" version="1.1" xmlns="http://www.w3.org/2000/svg" p-id="15119" width="200" height="200"><path d="M725.312 256h213.376v85.312h-85.376V896a42.688 42.688 0 0 1-42.624 42.688H213.312A42.688 42.688 0 0 1 170.688 896V341.312H85.312V256h213.376V128c0-23.552 19.072-42.688 42.624-42.688h341.376c23.552 0 42.624 19.136 42.624 42.688v128zM768 341.312H256v512h512v-512z m-384 128h85.312v256H384v-256z m170.688 0H640v256H554.688v-256zM384 170.688V256h256V170.688H384z" p-id="15120"></path></svg>