<svg t="1631238615736" class="icon" viewBox="0 0 1024 1024" version="1.1" xmlns="http://www.w3.org/2000/svg" p-id="19107" width="200" height="200"><path d="M508.544 144.32c209.6 0 380.544 167.616 380.544 372.992 0 205.44-170.944 372.992-380.544 372.992S128 722.752 128 517.312c0-205.44 170.944-372.992 380.544-372.992z m0 27.136c-194.368 0-352.896 155.328-352.896 345.856s158.528 345.92 352.896 345.92c194.368 0 352.896-155.392 352.896-345.92 0-190.528-158.528-345.856-352.896-345.856z m-68.352 27.328l1.024 193.728c0.32 64.512 0.512 103.04 1.28 115.648 0.64 12.608 3.072 24.96 7.104 36.928 9.088 25.984 24.32 44.416 45.888 55.36 27.456 14.208 67.968 21.248 121.728 21.248 61.376 0 104.64-10.816 129.92-32.448 19.776-16.832 32.448-39.296 37.888-67.584 2.688-13.632 4.48-28.416 5.312-43.968 0.896-15.744 0.96-45.44 2.368-89.088l1.152-37.504c29.696 48.704 46.784 105.6 46.784 166.208 0 179.328-149.12 325.568-332.096 325.568-182.912 0-332.16-146.24-332.16-325.568 0-156.288 113.472-287.488 263.808-318.528z m162.048 6.272a333.76 333.76 0 0 1 173.056 118.784l0.768 31.232c1.664 70.528-1.728 119.232-5.12 145.92-3.52 26.752-10.624 47.488-21.44 62.016-21.056 28.16-62.592 42.432-124.608 42.432-6.72 0-14.528-0.384-23.616-1.088l-0.768-72.064 0.512-141.312z" p-id="19108"></path></svg>