<svg t="1631237671263" class="icon" viewBox="0 0 1024 1024" version="1.1" xmlns="http://www.w3.org/2000/svg" p-id="14735" width="200" height="200"><path d="M298.688 341.312V256a213.312 213.312 0 1 1 426.624 0v85.312h128c23.616 0 42.688 19.136 42.688 42.688v512a42.688 42.688 0 0 1-42.688 42.688H170.688A42.688 42.688 0 0 1 128 896V384c0-23.552 19.072-42.688 42.688-42.688h128z m0 85.376H213.312v426.624h597.376V426.688h-85.376V512H640V426.688H384V512H298.688V426.688zM384 341.312h256V256a128 128 0 1 0-256 0v85.312z" p-id="14736"></path></svg>