<svg t="1631238929930" class="icon" viewBox="0 0 1024 1024" version="1.1" xmlns="http://www.w3.org/2000/svg" p-id="20647" width="200" height="200">
    <path d="M0 0m85.333333 0l853.333334 0q85.333333 0 85.333333 85.333333l0 853.333334q0 85.333333-85.333333 85.333333l-853.333334 0q-85.333333 0-85.333333-85.333333l0-853.333334q0-85.333333 85.333333-85.333333Z" p-id="20648"></path>
    <path d="M681.130667 495.189333L380.586667 260.48a5.290667 5.290667 0 0 0-8.576 4.181333v51.541334c0 3.242667 1.536 6.4 4.053333 8.405333L616.106667 512l-240 187.392a10.581333 10.581333 0 0 0-4.053334 8.405333v51.541334c0 4.48 5.12 6.912 8.576 4.181333l300.544-234.709333a21.333333 21.333333 0 0 0 0-33.621334z" fill="#FFFFFF" p-id="20649"></path>
</svg>