<svg t="1631237782796" class="icon" viewBox="0 0 1024 1024" version="1.1" xmlns="http://www.w3.org/2000/svg" p-id="15247" width="200" height="200"><path d="M921.856 134.72H540.608a37.888 37.888 0 0 0-38.144 37.76c0 20.8 17.088 37.76 38.144 37.76h381.248a37.952 37.952 0 0 0 38.144-37.76 37.952 37.952 0 0 0-38.144-37.76zM769.344 587.52H540.608a37.952 37.952 0 0 0-38.144 37.76c0 20.8 17.088 37.696 38.144 37.696h228.736c21.12 0 38.144-16.896 38.144-37.76a37.952 37.952 0 0 0-38.144-37.76z m-76.224 226.368H540.608a37.952 37.952 0 0 0-38.144 37.76c0 20.8 17.088 37.696 38.144 37.696h152.512c21.056 0 38.144-16.896 38.144-37.76a37.952 37.952 0 0 0-38.144-37.76z m152.512-452.736H540.608a37.952 37.952 0 0 0-38.144 37.76c0 20.8 17.088 37.76 38.144 37.76h305.024a37.952 37.952 0 0 0 38.144-37.76 37.952 37.952 0 0 0-38.144-37.76z m-458.304 411.456H273.856V101.696A37.952 37.952 0 0 0 235.712 64a37.888 37.888 0 0 0-38.144 37.76V772.48H84.096c-21.12 0-26.432 12.288-11.968 27.456l145.728 152.832c9.024 9.472 23.68 9.6 32.832 0.128l148.352-153.216c14.592-14.976 9.344-27.2-11.712-27.2z" p-id="15248"></path></svg>