<svg t="1631183491657" class="icon" viewBox="0 0 1024 1024" version="1.1" xmlns="http://www.w3.org/2000/svg" p-id="12299" width="200" height="200"><path d="M909.632 854.528l-259.712-259.712c40.32-52.096 62.08-115.84 62.08-182.848a298.24 298.24 0 0 0-87.872-212.096A297.792 297.792 0 0 0 411.968 112a298.24 298.24 0 0 0-212.096 87.872A297.6 297.6 0 0 0 112 411.968c0 80.128 31.36 155.52 87.872 212.16a297.6 297.6 0 0 0 212.096 87.872 297.6 297.6 0 0 0 182.72-62.016l259.712 259.584c3.2 3.2 8.384 3.2 11.584 0l43.584-43.52a8.192 8.192 0 0 0 0-11.52z m-339.2-284.16a222.784 222.784 0 0 1-158.464 65.6 222.784 222.784 0 0 1-158.4-65.536 222.784 222.784 0 0 1-65.6-158.464c0-59.776 23.36-116.096 65.664-158.4a222.784 222.784 0 0 1 158.336-65.6c59.84 0 116.16 23.232 158.4 65.664a222.784 222.784 0 0 1 65.6 158.336c0 59.84-23.296 116.16-65.536 158.4z" p-id="12300"></path></svg>