<svg t="1631238216677" class="icon" viewBox="0 0 1024 1024" version="1.1" xmlns="http://www.w3.org/2000/svg" p-id="17176" width="200" height="200"><path d="M928 160h-832A32 32 0 0 0 64 192v640a32 32 0 0 0 32 32h832a32 32 0 0 0 32-32V192a32 32 0 0 0-32-32z m-40 110.784v521.216H136V270.784l-27.584-21.504 39.296-50.496 42.816 33.28h643.072l42.816-33.28 39.296 50.56-27.712 21.44z m-54.4-38.784L512 481.984 190.4 232l-42.816-33.28-39.296 50.496 27.584 21.504 341.632 265.6a56 56 0 0 0 68.672 0l341.824-265.536 27.584-21.504-39.296-50.496-42.688 33.216z" p-id="17177"></path></svg>