<svg t="1631183423543" class="icon" viewBox="0 0 1024 1024" version="1.1" xmlns="http://www.w3.org/2000/svg" p-id="12043" width="200" height="200"><path d="M533.184 492.288L277.888 166.08a15.872 15.872 0 0 0-12.608-6.08H188.032a8 8 0 0 0-6.336 12.928L447.104 512l-265.408 339.072a8 8 0 0 0 6.336 12.928h77.248c4.928 0 9.6-2.304 12.608-6.08l255.36-326.144a32 32 0 0 0 0-39.488z m304 0L581.888 166.08a15.872 15.872 0 0 0-12.608-6.08H492.032a8 8 0 0 0-6.336 12.928L751.104 512l-265.408 339.072a8 8 0 0 0 6.272 12.928h77.312c4.928 0 9.6-2.304 12.608-6.08l255.36-326.144a32 32 0 0 0 0-39.488z" p-id="12044"></path></svg>