<svg t="1631239174596" class="icon" viewBox="0 0 1024 1024" version="1.1" xmlns="http://www.w3.org/2000/svg" p-id="21928" width="200" height="200"><path d="M658.284983 121.929143H170.641554v780.141714h682.715429v-585.142857H658.284983V121.929143zM73.142126 72.777143C73.142126 46.006857 94.938697 24.356571 121.855269 24.356571h585.142857L950.856411 268.214857v682.276572a48.786286 48.786286 0 0 1-48.420571 49.152H121.562697A48.786286 48.786286 0 0 1 73.142126 951.222857V72.777143z m438.857143 414.866286a121.929143 121.929143 0 1 1 0-243.858286 121.929143 121.929143 0 0 1 0 243.858286z m-218.112 268.141714a219.428571 219.428571 0 0 1 436.224 0H293.887269z" p-id="21929"></path></svg>