<svg t="1631238190510" class="icon" viewBox="0 0 1024 1024" version="1.1" xmlns="http://www.w3.org/2000/svg" p-id="17048" width="200" height="200"><path d="M554.688 896v85.312H469.312V896H128a42.688 42.688 0 0 1-42.688-42.688V170.688C85.312 147.072 104.448 128 128 128h256a170.24 170.24 0 0 1 128 57.792A170.24 170.24 0 0 1 640 128h256c23.552 0 42.688 19.072 42.688 42.688v682.624A42.688 42.688 0 0 1 896 896H554.688z m298.624-85.312V213.312H640c-47.104 0-85.312 38.208-85.312 85.376v512h298.624z m-384 0v-512c0-47.168-38.208-85.376-85.312-85.376H170.688v597.376h298.624z" p-id="17049"></path></svg>