<svg t="1631239670993" class="icon" viewBox="0 0 1024 1024" version="1.1" xmlns="http://www.w3.org/2000/svg" p-id="24488" width="200" height="200"><path d="M853.357714 414.500571h48.713143c26.989714 0 48.786286 21.796571 48.786286 48.713143V950.857143a48.786286 48.786286 0 0 1-48.786286 48.786286H121.929143A48.786286 48.786286 0 0 1 73.142857 950.857143V463.213714c0-26.916571 21.796571-48.713143 48.786286-48.713143h48.713143V365.714286a341.357714 341.357714 0 1 1 682.715428 0v48.786285zM170.642286 512v390.070857h682.715428V512H170.642286z m292.571428 97.499429h97.572572V804.571429H463.213714V609.499429z m292.571429-194.998858V365.714286a243.785143 243.785143 0 1 0-487.570286 0v48.786285h487.570286z" p-id="24489"></path></svg>