<svg t="1631238048880" class="icon" viewBox="0 0 1024 1024" version="1.1" xmlns="http://www.w3.org/2000/svg" p-id="16406" width="200" height="200"><path d="M0.16 1.38411h1020.54164v1020.541639H0.16z" fill="#FFFFFF" fill-opacity="0" p-id="16407"></path><path d="M856.649571 830.574192h-27.873544V384.087224a318.791695 318.791695 0 0 0-282.753818-316.941963V37.294419a35.846525 35.846525 0 1 0-71.629266 0v29.850842A318.791695 318.791695 0 0 0 191.639125 384.087224v446.486968H163.765582a35.846525 35.846525 0 1 0 0 71.756834H438.546418v47.837889a71.69305 71.69305 0 1 0 143.322317 0v-47.837889h274.780836a35.846525 35.846525 0 1 0 0-71.756834z m-99.50281 0H263.268391V384.087224a246.971077 246.971077 0 0 1 246.843509-247.162428A246.971077 246.971077 0 0 1 757.082977 384.087224v446.486968z" p-id="16408"></path></svg>