<svg t="1631183447162" class="icon" viewBox="0 0 1024 1024" version="1.1" xmlns="http://www.w3.org/2000/svg" p-id="12171" width="200" height="200"><path d="M893.312 293.312l-162.56-162.56a63.744 63.744 0 0 0-26.752-16V112H144a32 32 0 0 0-32 32v736a32 32 0 0 0 32 32h736a32 32 0 0 0 32-32V338.56a63.808 63.808 0 0 0-18.688-45.248zM384 184h256V288H384V184z m456 656H184V184H320V320a32 32 0 0 0 32 32h320A32 32 0 0 0 704 320V205.824l136 136v498.176zM512 441.984a144 144 0 1 0 0.064 288.064A144 144 0 0 0 512 442.048z m0 224a80 80 0 1 1 0-160 80 80 0 0 1 0 160z" p-id="12172"></path></svg>