<svg t="1631239415174" class="icon" viewBox="0 0 1024 1024" version="1.1" xmlns="http://www.w3.org/2000/svg" p-id="22952" width="200" height="200"><path d="M853.357714 999.643429H170.642286a146.285714 146.285714 0 0 1-146.285715-146.285715V73.142857C24.356571 46.226286 46.226286 24.356571 73.142857 24.356571h682.642286c26.989714 0 48.786286 21.869714 48.786286 48.786286v585.142857h195.072v195.072a146.285714 146.285714 0 0 1-146.285715 146.285715zM804.571429 755.785143v97.572571a48.786286 48.786286 0 0 0 97.499428 0v-97.572571H804.571429z m-97.499429 146.285714V121.929143h-585.142857v731.428571c0 26.916571 21.796571 48.713143 48.713143 48.713143h536.429714zM219.428571 268.214857h390.070858V365.714286H219.428571V268.214857z m0 194.998857h390.070858v97.572572H219.428571V463.213714zM219.428571 658.285714h243.785143v97.499429H219.428571V658.285714z" p-id="22953"></path></svg>