<svg t="1631237638192" class="icon" viewBox="0 0 1024 1024" version="1.1" xmlns="http://www.w3.org/2000/svg" p-id="14606" width="200" height="200"><path d="M512 64a448 448 0 1 0 0 896A448 448 0 0 0 512 64z m0 820.032A372.032 372.032 0 0 1 512 139.968a372.032 372.032 0 0 1 0 744.064z" fill="#010621" fill-opacity=".75" p-id="14607"></path><path d="M616.064 260.032l2.88 0.96 42.112 24.32a7.68 7.68 0 0 1 2.816 10.496L594.496 416h101.824a7.68 7.68 0 0 1 7.68 7.68v48.64a7.68 7.68 0 0 1-7.68 7.68H544v64h152.32a7.68 7.68 0 0 1 7.68 7.68v48.64a7.68 7.68 0 0 1-7.68 7.68H544v152.32a7.68 7.68 0 0 1-7.68 7.68h-48.64a7.68 7.68 0 0 1-7.68-7.68V608H327.68A7.68 7.68 0 0 1 320 600.32v-48.64a7.68 7.68 0 0 1 7.68-7.68H480v-64H327.68A7.68 7.68 0 0 1 320 472.32v-48.64a7.68 7.68 0 0 1 7.68-7.68h101.76L360.128 295.808a7.68 7.68 0 0 1 2.816-10.496l42.112-24.32a7.68 7.68 0 0 1 10.496 2.816L503.424 416h17.088l87.936-152.192a7.68 7.68 0 0 1 7.616-3.84z" p-id="14608"></path></svg>