<svg t="1631239542695" class="icon" viewBox="0 0 1024 1024" version="1.1" xmlns="http://www.w3.org/2000/svg" p-id="23720" width="200" height="200"><path d="M902.070857 24.356571c26.916571 0 48.786286 21.869714 48.786286 48.786286v877.714286a48.786286 48.786286 0 0 1-48.786286 48.786286H219.428571A48.786286 48.786286 0 0 1 170.642286 950.857143v-97.499429H73.142857v-97.572571h97.499429V658.285714H73.142857V560.786286h97.499429V463.213714H73.142857V365.714286h97.499429V268.214857H73.142857V170.642286h97.499429V73.142857c0-26.916571 21.869714-48.786286 48.786285-48.786286h682.642286z m-48.713143 97.572572h-585.142857v780.141714h585.142857V121.929143zM609.499429 316.928v146.285714h146.285714v97.572572h-146.285714v146.285714H512v-146.285714H365.714286V463.213714h146.285714v-146.285714h97.499429z" p-id="23721"></path></svg>