<svg t="1631238757972" class="icon" viewBox="0 0 1024 1024" version="1.1" xmlns="http://www.w3.org/2000/svg" p-id="19748" width="200" height="200"><path d="M21.333333 21.333333m85.333334 0l810.666666 0q85.333333 0 85.333334 85.333334l0 810.666666q0 85.333333-85.333334 85.333334l-810.666666 0q-85.333333 0-85.333334-85.333334l0-810.666666q0-85.333333 85.333334-85.333334Z" fill="#EBEBEB" p-id="19749"></path><path d="M653.354667 316.16V264.704a5.333333 5.333333 0 0 0-8.618667-4.181333l-300.544 234.709333a21.248 21.248 0 0 0 0 33.536l300.544 234.752a5.290667 5.290667 0 0 0 8.576-4.224v-51.541333a10.794667 10.794667 0 0 0-4.053333-8.362667L409.258667 512l240-187.392a10.794667 10.794667 0 0 0 4.053333-8.405333z" p-id="19750"></path></svg>