<svg t="1631251490878" class="icon" viewBox="0 0 1024 1024" version="1.1" xmlns="http://www.w3.org/2000/svg" p-id="2144" width="200" height="200"><path d="M601.7 350.4c-4.7-4.7-11-7.3-17.7-7.3s-13 2.6-17.7 7.3L512 404.7l-54.4-54.4c-9.8-9.8-25.6-9.8-35.4 0l-144 144c-4.7 4.7-7.3 11-7.3 17.7s2.6 13 7.3 17.7l144 144c4.7 4.7 11 7.3 17.7 7.3s13-2.6 17.7-7.3l54.4-54.4 54.4 54.4c4.7 4.7 11 7.3 17.7 7.3s13-2.6 17.7-7.3l144-144c4.7-4.7 7.3-11 7.3-17.7s-2.6-13-7.3-17.7L601.7 350.4zM584 620.6L531.5 568c-0.5-0.7-1.1-1.3-1.7-1.9-0.6-0.6-1.2-1.2-1.9-1.7l-70.1-70.1c-9.8-9.8-25.6-9.8-35.4 0-9.8 9.8-9.8 25.6 0 35.4l54.2 54.2-36.6 36.7L331.4 512 440 403.4l54.4 54.4 71.9 71.9c9.8 9.8 25.6 9.8 35.4 0s9.8-25.6 0-35.4l-54.2-54.2 36.7-36.7L692.6 512 584 620.6z" p-id="2145"></path><path d="M865.8 362.5c-19.3-45.7-47-86.8-82.3-122.1s-76.3-62.9-122.1-82.3c-47.4-20-97.6-30.2-149.5-30.2s-102.1 10.2-149.5 30.2c-45.7 19.3-86.8 47-122.1 82.3s-62.9 76.3-82.3 122.1c-20 47.4-30.2 97.6-30.2 149.5S138 614.1 158 661.5c19.3 45.7 47 86.8 82.3 122.1s76.3 62.9 122.1 82.3c47.4 20 97.6 30.2 149.5 30.2s102.1-10.2 149.5-30.2c45.7-19.3 86.8-47 122.1-82.3s62.9-76.3 82.3-122.1c20-47.4 30.2-97.6 30.2-149.5s-10.2-102.1-30.2-149.5zM748.2 748.2C685.1 811.3 601.2 846 512 846s-173.1-34.7-236.2-97.8C212.7 685.1 178 601.2 178 512s34.7-173.1 97.8-236.2c63.1-63.1 147-97.8 236.2-97.8s173.1 34.7 236.2 97.8c63.1 63.1 97.8 147 97.8 236.2s-34.7 173.1-97.8 236.2z" p-id="2146"></path></svg>