<svg t="1631239983015" class="icon" viewBox="0 0 1178 1024" version="1.1" xmlns="http://www.w3.org/2000/svg" p-id="26536" width="200" height="200"><path d="M1073.730858 576.108025h-104.804051V221.942612L553.717355 593.941998 130.965782 220.764155v617.19687H707.073807V942.765076H78.563756a52.402025 52.402025 0 0 1-52.402025-52.402026V52.402025C26.161731 23.411999 49.652294 0 78.563756 0h942.765076c28.911462 0 52.402025 23.411999 52.402026 52.402025v523.706z m-916.053399-471.382538l395.489949 348.980206L942.765076 104.725487H157.677459z m885.33497 733.314102l111.167715 111.089151-74.164186 74.085622-111.089151-111.167715-111.089152 111.167715-74.085622-74.085622 111.167715-111.089151-111.167715-111.089152 74.085622-74.164186 111.089152 111.167716 111.089151-111.167716 74.164186 74.164186-111.167715 111.089152z" p-id="26537"></path></svg>