<svg t="1631239894979" class="icon" viewBox="0 0 1024 1024" version="1.1" xmlns="http://www.w3.org/2000/svg" p-id="25896" width="200" height="200"><path d="M512 882.8928l225.28-225.28a318.600533 318.600533 0 1 0-450.56 0l225.28 225.28z m0 128.750933l-289.655467-289.655466a409.6 409.6 0 1 1 579.310934 0L512 1011.643733z m0-488.2432A90.999467 90.999467 0 1 0 512 341.333333a90.999467 90.999467 0 0 0 0 182.0672zM512 614.4a182.0672 182.0672 0 1 1 0-364.066133A182.0672 182.0672 0 0 1 512 614.4z" p-id="25897"></path></svg>