<svg t="1631239969317" class="icon" viewBox="0 0 1109 1024" version="1.1" xmlns="http://www.w3.org/2000/svg" p-id="26408" width="200" height="200"><path d="M938.666667 0a170.666667 170.666667 0 1 1 0 341.333333H768a170.666667 170.666667 0 0 1-160.938667-113.749333h-66.56C477.866667 227.584 426.666667 278.784 426.666667 341.333333v9.728a170.666667 170.666667 0 0 1 0 321.877334V682.666667c0 62.549333 51.2 113.749333 113.749333 113.749333h66.56A170.837333 170.837333 0 0 1 768 682.666667h170.666667a170.666667 170.666667 0 1 1 0 341.333333H768a170.666667 170.666667 0 0 1-160.938667-113.749333h-66.56A227.498667 227.498667 0 0 1 312.832 682.666667H199.082667a170.666667 170.666667 0 1 1 0-341.333334h113.834666a227.498667 227.498667 0 0 1 227.498667-227.584h66.56A170.837333 170.837333 0 0 1 768 0h170.666667z m0 796.416H768a56.917333 56.917333 0 0 0 0 113.834667h170.666667a56.917333 56.917333 0 0 0 0-113.834667z m-568.917334-341.333333h-170.666666a56.917333 56.917333 0 0 0 0 113.834666h170.666666a56.917333 56.917333 0 0 0 0-113.834666z m568.917334-341.333334H768a56.917333 56.917333 0 0 0 0 113.834667h170.666667a56.917333 56.917333 0 0 0 0-113.834667z" p-id="26409"></path></svg>