<svg t="1631237706276" class="icon" viewBox="0 0 1024 1024" version="1.1" xmlns="http://www.w3.org/2000/svg" p-id="14863" width="200" height="200"><path d="M655.616 146.688L792.576 384h146.112v85.312h-49.792l-32.32 387.584a42.688 42.688 0 0 1-42.496 39.104H209.92a42.688 42.688 0 0 1-42.496-39.104l-32.32-387.584h-49.792V384h146.048l137.024-237.312 73.92 42.688L329.92 384h364.16L581.696 189.376l73.92-42.688z m147.648 322.624H220.736l28.416 341.376h525.632l28.48-341.376zM554.688 554.688v170.624H469.312V554.688h85.376zM384 554.688v170.624H298.688V554.688H384z m341.312 0v170.624H640V554.688h85.312z" p-id="14864"></path></svg>