<svg t="1631239150809" class="icon" viewBox="0 0 1024 1024" version="1.1" xmlns="http://www.w3.org/2000/svg" p-id="21800" width="200" height="200"><path d="M0 24.356571h780.434286c53.76 0 97.28 43.812571 97.28 97.060572v781.165714c0 53.613714-43.52 97.060571-97.28 97.060572H0V24.356571z m195.072 97.572572H97.499429v780.141714h97.572571V121.929143zM292.571429 902.070857h487.643428V121.929143H292.571429v780.141714z m97.499428-194.998857a146.285714 146.285714 0 0 1 292.571429 0h-292.571429z m146.285714-195.072a97.499429 97.499429 0 1 1 0-195.072 97.499429 97.499429 0 0 1 0 195.072z m390.144-292.571429H1024v195.072h-97.499429V219.428571z m0 292.571429H1024v195.072h-97.499429V512z" p-id="21801"></path></svg>