<svg t="1631182996274" class="icon" viewBox="0 0 1024 1024" version="1.1" xmlns="http://www.w3.org/2000/svg" p-id="5947" width="200" height="200"><path d="M512 128a469.504 469.504 0 0 1 461.632 384A469.504 469.504 0 0 1 50.368 512 469.504 469.504 0 0 1 512 128z m0 682.688c179.2 0 334.592-123.968 374.464-298.688A384.192 384.192 0 0 0 137.6 512 384.192 384.192 0 0 0 512 810.688zM512 704a192 192 0 1 1 0-384 192 192 0 0 1 0 384z m0-85.312a106.688 106.688 0 1 0 0-213.376 106.688 106.688 0 0 0 0 213.376z" p-id="5948"></path></svg>