<svg t="1631239620896" class="icon" viewBox="0 0 1260 1024" version="1.1" xmlns="http://www.w3.org/2000/svg" p-id="24232" width="200" height="200"><path d="M787.692308 26.230154a210.077538 210.077538 0 0 1 181.956923 315.155692h238.119384v104.999385H1102.769231v525.075692a52.539077 52.539077 0 0 1-52.539077 52.539077H210.077538A52.539077 52.539077 0 0 1 157.538462 971.460923V446.385231H52.539077V341.307077l238.198154 0.078769A210.077538 210.077538 0 0 1 630.153846 97.437538a209.132308 209.132308 0 0 1 157.538462-71.207384zM577.614769 446.385231h-315.076923v472.615384h315.076923v-472.615384z m420.155077 0h-315.076923v472.615384h315.076923v-472.615384zM472.615385 131.308308a104.999385 104.999385 0 0 0-7.876923 209.762461l7.876923 0.236308h104.999384V236.307692c0-51.830154-37.809231-95.940923-89.088-103.817846l-8.113231-0.945231L472.615385 131.308308z m315.076923 0c-54.980923 0-100.667077 42.299077-104.763077 97.122461l-0.236308 7.876923v104.999385H787.692308c54.980923 0 100.667077-42.299077 104.763077-97.122462l0.236307-7.876923c0-57.974154-47.025231-104.999385-104.999384-104.999384z" p-id="24233"></path></svg>