<svg t="1631239782164" class="icon" viewBox="0 0 1024 1024" version="1.1" xmlns="http://www.w3.org/2000/svg" p-id="25256" width="200" height="200"><path d="M722.038154 315.076923l229.533538 91.844923c19.928615 7.876923 33.004308 27.332923 33.004308 48.758154V945.230769a52.539077 52.539077 0 0 1-52.539077 52.539077H91.884308A52.539077 52.539077 0 0 1 39.345231 945.230769V455.68c0-21.504 13.075692-40.802462 33.083077-48.758154L301.804308 315.076923h420.155077zM701.794462 420.076308H322.126769l-177.782154 71.128615v401.486769h735.232v-52.460307H301.883077V577.614769h577.693538V491.204923L701.794462 420.076308zM722.038154 0c28.987077 0 52.460308 23.552 52.460308 52.539077v209.998769H249.422769V52.539077c0-28.987077 23.473231-52.539077 52.460308-52.539077h420.155077zM669.499077 104.999385H354.422154V157.538462h315.076923v-52.539077z" p-id="25257"></path></svg>