<svg t="1631237829227" class="icon" viewBox="0 0 1024 1024" version="1.1" xmlns="http://www.w3.org/2000/svg" p-id="15503" width="200" height="200"><path d="M896 496.896V896a42.688 42.688 0 0 1-42.688 42.688H170.688A42.688 42.688 0 0 1 128 896V496.896A170.048 170.048 0 0 1 85.312 384V128c0-23.552 19.136-42.688 42.688-42.688h768c23.552 0 42.688 19.136 42.688 42.688v256A170.24 170.24 0 0 1 896 496.896z m-85.312 52.416A170.944 170.944 0 0 1 640 496.896a170.24 170.24 0 0 1-128 57.792 170.24 170.24 0 0 1-128-57.792 170.24 170.24 0 0 1-170.688 52.416v304h597.376v-304zM597.312 384a42.688 42.688 0 0 1 85.376 0 85.312 85.312 0 1 0 170.624 0V170.688H170.688V384a85.312 85.312 0 1 0 170.624 0 42.688 42.688 0 0 1 85.376 0 85.312 85.312 0 1 0 170.624 0z" p-id="15504"></path></svg>