<svg t="1631240021663" class="icon" viewBox="0 0 1024 1024" version="1.1" xmlns="http://www.w3.org/2000/svg" p-id="26792" width="200" height="200"><path d="M603.209143 756.955429l-204.8-111.689143a195.072 195.072 0 1 1 0-266.459429l204.8-111.689143a195.072 195.072 0 1 1 46.811428 85.577143l-204.8 111.689143c7.826286 31.232 7.826286 64 0 95.232l204.726858 111.689143a195.072 195.072 0 1 1-46.811429 85.577143zM256 609.499429a97.499429 97.499429 0 1 0 0-194.998858 97.499429 97.499429 0 0 0 0 194.998858z m536.356571-292.571429a97.499429 97.499429 0 1 0 0-194.998857 97.499429 97.499429 0 0 0 0 194.998857z m0 585.142857a97.499429 97.499429 0 1 0 0-194.998857 97.499429 97.499429 0 0 0 0 194.998857z" p-id="26793"></path></svg>