<svg t="1631240130729" class="icon" viewBox="0 0 1024 1024" version="1.1" xmlns="http://www.w3.org/2000/svg" p-id="27560" width="200" height="200"><path d="M950.857143 494.738286V950.857143a48.786286 48.786286 0 0 1-48.786286 48.786286H121.929143A48.786286 48.786286 0 0 1 73.142857 950.857143V494.738286A194.340571 194.340571 0 0 1 24.356571 365.714286V73.142857C24.356571 46.226286 46.226286 24.356571 73.142857 24.356571h877.714286c26.916571 0 48.786286 21.869714 48.786286 48.786286v292.571429A194.56 194.56 0 0 1 950.857143 494.738286z m-97.499429 59.904A195.364571 195.364571 0 0 1 658.285714 494.738286a194.56 194.56 0 0 1-146.285714 66.048 194.56 194.56 0 0 1-146.285714-66.048 194.56 194.56 0 0 1-195.072 59.904v347.428571h682.715428v-347.428571zM609.499429 365.714286a48.786286 48.786286 0 0 1 97.572571 0 97.499429 97.499429 0 1 0 194.998857 0V121.929143H121.929143V365.714286a97.499429 97.499429 0 1 0 194.998857 0 48.786286 48.786286 0 0 1 97.572571 0 97.499429 97.499429 0 1 0 194.998858 0z" p-id="27561"></path></svg>