<svg t="1631237122786" class="icon" viewBox="0 0 1024 1024" version="1.1" xmlns="http://www.w3.org/2000/svg" p-id="13195" width="200" height="200"><path d="M400 317.696h73.92v338.304c0 4.416 3.584 8 8 8h59.968a8 8 0 0 0 8-8V317.696H624c6.72 0 10.368-7.68 6.272-12.928l-112-141.76a8 8 0 0 0-12.544 0L393.728 304.64a8.064 8.064 0 0 0 6.272 12.992z m478.016 308.288h-60.032a8 8 0 0 0-8 8v153.984H214.016V633.984a8 8 0 0 0-8-8H145.92a8 8 0 0 0-8 8V832a32 32 0 0 0 32 32h684.032a32 32 0 0 0 32-32V633.984a8 8 0 0 0-8-8z" p-id="13196"></path></svg>