<svg t="1631239117131" class="icon" viewBox="0 0 1024 1024" version="1.1" xmlns="http://www.w3.org/2000/svg" p-id="21544" width="200" height="200"><path d="M512 24.356571A487.862857 487.862857 0 0 1 999.643429 512 487.862857 487.862857 0 0 1 512 999.643429 487.862857 487.862857 0 0 1 24.356571 512 487.862857 487.862857 0 0 1 512 24.356571zM220.525714 678.546286c71.606857 106.788571 179.053714 174.811429 299.300572 174.811428 120.100571 0 227.620571-67.949714 299.154285-174.811428a437.321143 437.321143 0 0 0-299.154285-117.76 437.321143 437.321143 0 0 0-299.300572 117.76zM512 463.213714a146.285714 146.285714 0 1 0 0-292.571428 146.285714 146.285714 0 0 0 0 292.571428z" p-id="21545"></path></svg>