<svg t="1631183189101" class="icon" viewBox="0 0 1024 1024" version="1.1" xmlns="http://www.w3.org/2000/svg" p-id="11017" width="200" height="200"><path d="M512 64a448 448 0 1 1 0 896A448 448 0 0 1 512 64z m0 76.032a372.032 372.032 0 0 0 0 743.936A372.032 372.032 0 0 0 512 140.032z m187.008 212.992c6.464 0 10.24 7.36 6.4 12.672l-210.56 292.032a31.808 31.808 0 0 1-51.776 0l-124.544-172.8a8 8 0 0 1 6.464-12.736h46.912a32 32 0 0 1 25.92 13.312L468.992 584.32l157.184-218.048a31.872 31.872 0 0 1 25.92-13.248z" p-id="11018"></path></svg>