<svg t="1631239435290" class="icon" viewBox="0 0 1024 1024" version="1.1" xmlns="http://www.w3.org/2000/svg" p-id="23080" width="200" height="200"><path d="M796.4672 318.600533H1024V409.6h-227.5328V318.600533zM705.399467 546.133333H1024v90.999467h-318.600533V546.133333z m136.533333 227.5328H1024v91.067734h-182.0672v-91.067734z m-819.2 227.601067a364.066133 364.066133 0 1 1 728.200533 0H659.933867a273.066667 273.066667 0 0 0-546.133334 0H22.7328z m364.1344-409.6c-150.869333 0-273.066667-122.197333-273.066667-273.066667s122.197333-273.066667 273.066667-273.066666 273.066667 122.197333 273.066667 273.066666-122.197333 273.066667-273.066667 273.066667z m0-91.067733a181.998933 181.998933 0 1 0 0-364.066134 181.998933 181.998933 0 1 0 0 364.066134z" p-id="23081"></path></svg>