<svg t="1631239233745" class="icon" viewBox="0 0 1194 1024" version="1.1" xmlns="http://www.w3.org/2000/svg" p-id="22312" width="200" height="200"><path d="M620.885333 113.749333H1109.333333c31.402667 0 56.917333 25.514667 56.917334 56.917334v796.416A56.917333 56.917333 0 0 1 1109.333333 1024H85.333333a56.917333 56.917333 0 0 1-56.917333-56.917333V56.917333C28.416 25.429333 53.930667 0 85.333333 0h421.802667l113.749333 113.749333z m-478.72 0v796.501334h910.250667v-682.666667H573.781333L460.032 113.749333H142.250667zM369.834667 853.333333a227.584 227.584 0 0 1 455.168 0H369.749333zM597.333333 568.917333a142.250667 142.250667 0 1 1 0-284.501333 142.250667 142.250667 0 0 1 0 284.501333z" p-id="22313"></path></svg>