<svg t="1631239803993" class="icon" viewBox="0 0 1193 1024" version="1.1" xmlns="http://www.w3.org/2000/svg" p-id="25384" width="200" height="200"><path d="M189.149754 1022.891867l-1.193373 1.108133L186.763007 1022.891867H84.814784a56.429535 56.429535 0 0 1-56.429535-56.429535V56.429535A56.85574 56.85574 0 0 1 84.814784 0h1023.744277c31.198202 0 56.429535 25.316574 56.429535 56.429535v910.032797a56.85574 56.85574 0 0 1-56.429535 56.429535H189.234995z m862.127362-340.963956V113.626238H142.096729v795.639391L710.313161 340.963956l340.963955 340.963955z m0 160.679265l-340.963955-340.963956-407.537168 407.622409h748.501123v-66.658453z m-681.927911-388.016982a113.626238 113.626238 0 1 1 0-227.252477 113.626238 113.626238 0 0 1 0 227.252477z" p-id="25385"></path></svg>