<svg t="1631238132802" class="icon" viewBox="0 0 1024 1024" version="1.1" xmlns="http://www.w3.org/2000/svg" p-id="16792" width="200" height="200"><path d="M426.688 85.312c23.552 0 42.624 19.136 42.624 42.688v170.688a42.688 42.688 0 0 1-42.624 42.624H341.312v85.376h213.376V384c0-23.552 19.072-42.688 42.624-42.688h256c23.552 0 42.688 19.136 42.688 42.688v170.688a42.688 42.688 0 0 1-42.688 42.624h-256a42.688 42.688 0 0 1-42.624-42.624V512H341.312v256h213.376v-42.688c0-23.552 19.072-42.624 42.624-42.624h256c23.552 0 42.688 19.072 42.688 42.624V896a42.688 42.688 0 0 1-42.688 42.688h-256A42.688 42.688 0 0 1 554.688 896v-42.688h-256A42.688 42.688 0 0 1 256 810.688V341.312H170.688A42.688 42.688 0 0 1 128 298.688V128c0-23.552 19.136-42.688 42.688-42.688h256z m384 682.688H640v85.312h170.688V768z m0-341.312H640V512h170.688V426.688zM384 170.688H213.312V256H384V170.688z" p-id="16793"></path></svg>