<svg t="1631237506756" class="icon" viewBox="0 0 1024 1024" version="1.1" xmlns="http://www.w3.org/2000/svg" p-id="14222" width="200" height="200"><path d="M554.688 864v85.312H469.312V864H128a42.688 42.688 0 0 1-42.688-42.688V224h853.376v597.312A42.688 42.688 0 0 1 896 864H554.688z m-384-85.312h682.624V309.312H170.688v469.376z m384-384H768V480H554.688V394.688z m0 170.624H768v85.376H554.688V565.312zM384 394.688v128h128a128 128 0 1 1-128-128zM85.312 96h853.376v85.312H85.312V96z" p-id="14223"></path></svg>