<svg t="1631237731636" class="icon" viewBox="0 0 1024 1024" version="1.1" xmlns="http://www.w3.org/2000/svg" p-id="14991" width="200" height="200"><path d="M85.312 938.688a341.312 341.312 0 1 1 682.688 0h-85.312a256 256 0 0 0-512 0H85.312z m341.376-384c-141.44 0-256-114.56-256-256s114.56-256 256-256 256 114.56 256 256-114.56 256-256 256z m0-85.376a170.624 170.624 0 1 0 0-341.312 170.624 170.624 0 1 0 0 341.312z m353.408 158.016a341.44 341.44 0 0 1 201.216 311.36H896a256 256 0 0 0-150.912-233.536l35.008-77.824z m-29.312-481.728A234.688 234.688 0 0 1 896 362.688a234.624 234.624 0 0 1-213.312 233.728V510.528a149.312 149.312 0 0 0 44.416-281.984l23.68-82.944z" p-id="14992"></path></svg>