<svg t="1631238806997" class="icon" viewBox="0 0 1024 1024" version="1.1" xmlns="http://www.w3.org/2000/svg" p-id="20006" width="200" height="200"><path d="M417.216 192.192c-8-0.704-20.672 0.192-28.352 7.872 0 0-187.968 176.256-195.968 184.128h-63.168c-35.392 0-65.728 28.672-65.728 64v128.128c0 35.392 30.336 64 65.728 64h63.232c8 8 195.968 184.192 195.968 184.192 8.32 8.32 20.352 8.576 28.352 7.808 16.192-1.536 30.976-16.96 30.976-29.44 0.128-1.344 0.192-579.84 0-581.184 0-12.16-14.848-27.968-31.04-29.44z m419.968 320.064l108.608-108.608a48.512 48.512 0 0 0-68.608-68.608l-108.608 108.608-108.672-108.608A48.512 48.512 0 0 0 591.36 403.648l108.672 108.608-108.672 108.672a48.512 48.512 0 1 0 68.608 68.608l108.672-108.672 108.608 108.672a48.512 48.512 0 1 0 68.608-68.608l-108.608-108.672z" p-id="20007"></path></svg>