<svg t="1631238883495" class="icon" viewBox="0 0 1024 1024" version="1.1" xmlns="http://www.w3.org/2000/svg" p-id="20390" width="200" height="200"><path d="M908.16 353.088l-253.952-36.864-113.536-230.144a32.128 32.128 0 0 0-57.408 0L369.856 316.224l-253.888 36.864a32 32 0 0 0-17.728 54.592l183.68 179.136-43.328 252.864a32 32 0 0 0 46.4 33.728L512 753.92l227.072 119.424a32 32 0 0 0 46.4-33.728l-43.392-252.864 183.68-179.136a32 32 0 0 0-17.664-54.592z" fill="#000000" fill-opacity=".04" p-id="20391"></path><path d="M483.328 86.08A32.192 32.192 0 0 1 512 68.288v685.696l-227.072 119.424a32 32 0 0 1-46.4-33.728l43.392-252.864-183.68-179.136a32 32 0 0 1 17.664-54.592l253.888-36.864z" fill="#FADB14" p-id="20392"></path></svg>