<svg t="1631237956439" class="icon" viewBox="0 0 1024 1024" version="1.1" xmlns="http://www.w3.org/2000/svg" p-id="16147" width="200" height="200"><path d="M840 840H184V184h656z" fill="#FFFFFF" p-id="16148"></path><path d="M328 544h368A8 8 0 0 0 704 536v-48a8 8 0 0 0-8-8h-368A8 8 0 0 0 320 488v48c0 4.416 3.584 8 8 8z" fill="#010621" fill-opacity=".75" p-id="16149"></path><path d="M880 112H144a32 32 0 0 0-32 32v736a32 32 0 0 0 32 32h736a32 32 0 0 0 32-32V144a32 32 0 0 0-32-32z m-40 728H184V184h656v656z" p-id="16150"></path></svg>